<svg width="256" height="256" viewBox="0 0 256 256" fill="none" xmlns="http://www.w3.org/2000/svg">
  <rect width="256" height="256" rx="128" fill="url(#paint0_linear_1_1)"/>
  <circle cx="128" cy="128" r="112" stroke="white" stroke-opacity="0.18" stroke-width="2"/>
  <path d="M82.376 162V91.76H122.696C129.416 91.76 135.192 92.8693 140.024 95.088C144.92 97.3067 148.664 100.477 151.256 104.6C153.912 108.659 155.24 113.459 155.24 119C155.24 124.541 153.88 129.341 151.16 133.4C148.504 137.459 144.664 140.597 139.64 142.816C134.68 145.035 128.712 146.144 121.736 146.144H95.528V132.44H118.904C122.952 132.44 126.312 131.885 128.984 130.776C131.656 129.667 133.651 128.051 134.968 125.928C136.352 123.805 137.044 121.496 137.044 119C137.044 116.44 136.352 114.099 134.968 111.976C133.651 109.789 131.624 108.141 128.888 107.032C126.216 105.859 122.824 105.272 118.712 105.272H100.28V162H82.376Z" fill="white"/>
  <path d="M165.055 162V91.76H182.959V162H165.055Z" fill="white"/>
  <defs>
    <linearGradient id="paint0_linear_1_1" x1="28" y1="24" x2="220" y2="236" gradientUnits="userSpaceOnUse">
      <stop stop-color="#111827"/>
      <stop offset="1" stop-color="#2563EB"/>
    </linearGradient>
  </defs>
</svg>
